HIERARCHY
ROOT Hips
{
	OFFSET -3.958830 18.904000 13.208200
	CHANNELS 6 Xposition Yposition Zposition Zrotation Yrotation Xrotation 
	JOINT LHipJoint
	{
		OFFSET 0.000000 0.000000 0.000000
		CHANNELS 3 Zrotation Yrotation Xrotation
		JOINT LeftUpLeg
		{
			OFFSET 1.800000 -1.400000 0.085000
			CHANNELS 3 Zrotation Yrotation Xrotation
			JOINT LeftLeg
			{
				OFFSET 2.215000 -6.000000 0.000000
				CHANNELS 3 Zrotation Yrotation Xrotation
				JOINT LeftFoot
				{
					OFFSET 2.500000 -6.900000 0.000000
					CHANNELS 3 Zrotation Yrotation Xrotation
					JOINT LeftToeBase
					{
						OFFSET 0.200000 -0.500000 1.950000
						CHANNELS 3 Zrotation Yrotation Xrotation
						End Site
						{
							OFFSET 0.000000 0.000000 0.000000
						}
					}
				}
			}
		}
	}
	JOINT RHipJoint
	{
		OFFSET 0.000000 0.000000 0.000000
		CHANNELS 3 Zrotation Yrotation Xrotation
		JOINT RightUpLeg
		{
			OFFSET -1.800000 -1.400000 0.085000
			CHANNELS 3 Zrotation Yrotation Xrotation
			JOINT RightLeg
			{
				OFFSET -2.215000 -6.000000 0.000000
				CHANNELS 3 Zrotation Yrotation Xrotation
				JOINT RightFoot
				{
					OFFSET -2.500000 -6.900000 0.000000
					CHANNELS 3 Zrotation Yrotation Xrotation
					JOINT RightToeBase
					{
						OFFSET -0.200000 -0.500000 1.950000
						CHANNELS 3 Zrotation Yrotation Xrotation
						End Site
						{
							OFFSET 0.000000 0.000000 0.000000
						}
					}
				}
			}
		}
	}
	JOINT LowerBack
	{
		OFFSET 0.000000 0.000000 0.000000
		CHANNELS 3 Zrotation Yrotation Xrotation
		JOINT Spine
		{
			OFFSET -0.087000 1.940000 -0.288900
			CHANNELS 3 Zrotation Yrotation Xrotation
			JOINT Spine1
			{
				OFFSET 0.000000 1.950000 0.060000
				CHANNELS 3 Zrotation Yrotation Xrotation
				JOINT Neck
				{
					OFFSET 0.000000 0.000000 0.000000
					CHANNELS 3 Zrotation Yrotation Xrotation
					JOINT Neck1
					{
						OFFSET 0.000000 1.600000 0.340000
						CHANNELS 3 Zrotation Yrotation Xrotation
						JOINT Head
						{
							OFFSET 0.000000 1.667000 -0.240000
							CHANNELS 3 Zrotation Yrotation Xrotation
							End Site
							{
								OFFSET 0.000000 0.000000 0.000000
							}
						}
					}
				}
				JOINT LeftShoulder
				{
					OFFSET 0.000000 0.000000 0.000000
					CHANNELS 3 Zrotation Yrotation Xrotation
					JOINT LeftArm
					{
						OFFSET 2.700000 1.550000 -0.730000
						CHANNELS 3 Zrotation Yrotation Xrotation
						JOINT LeftForeArm
						{
							OFFSET 5.450000 0.000000 0.000000
							CHANNELS 3 Zrotation Yrotation Xrotation
							JOINT LeftHand
							{
								OFFSET 3.450000 0.000000 0.000000
								CHANNELS 3 Zrotation Yrotation Xrotation
								JOINT LeftHandIndex1
								{
									OFFSET 0.750000 0.000000 0.000000
									CHANNELS 3 Zrotation Yrotation Xrotation
									End Site
									{
										OFFSET 0.000000 0.000000 0.000000
									}
								}
							}
						}
					}
				}
				JOINT RightShoulder
				{
					OFFSET 0.000000 0.000000 0.000000
					CHANNELS 3 Zrotation Yrotation Xrotation
					JOINT RightArm
					{
						OFFSET -2.700000 1.550000 -0.730000
						CHANNELS 3 Zrotation Yrotation Xrotation
						JOINT RightForeArm
						{
							OFFSET -5.450000 0.000000 0.000000
							CHANNELS 3 Zrotation Yrotation Xrotation
							JOINT RightHand
							{
								OFFSET -3.450000 0.000000 0.000000
								CHANNELS 3 Zrotation Yrotation Xrotation
								JOINT RightHandIndex1
								{
									OFFSET -0.750000 0.000000 0.000000
									CHANNELS 3 Zrotation Yrotation Xrotation
									End Site
									{
										OFFSET 0.000000 0.000000 0.000000
									}
								}
							}
						}
					}
				}
			}
		}
	}
}
MOTION
Frames: 8
Frame Time: 0.016667
-0.602550 12.761610 -1.049070 -50.521530 -65.713203 -8.131607 -16.499829 9.566682 6.289281 20.462526 -8.776172 -58.870070 63.158724 -33.171384 111.030246 4.657134 23.125739 -1.932340 1.099290 1.060380 1.173430 17.969871 -5.126018 4.608068 -48.962952 17.067814 -32.505334 31.040489 -42.554928 77.980635 -3.613712 -15.294243 -0.652326 0.387260 -0.713940 0.215450 -2.107387 -4.481048 -10.970543 -4.342863 11.834309 68.703628 -3.609813 14.388563 27.111580 7.616255 4.427152 -25.599355 1.874344 1.670141 81.719176 6.293490 2.242590 -22.391110 -27.782256 -34.018939 12.070405 -36.003743 10.134737 -6.014415 16.915632 2.867583 -0.100795 -3.089964 2.983152 0.907500 -0.617430 0.925150 -0.000820 10.769273 43.734289 15.538489 21.776926 3.532223 -17.303229 -33.644003 8.855557 -5.362316 3.156548 -1.835893 0.262750 0.058660 -0.511630 -0.197200 
-0.630550 12.656660 -0.929890 -48.004148 -66.140209 -10.416629 -16.328327 10.277875 6.109992 21.306140 -9.551577 -55.737260 55.178546 -27.483742 120.253447 4.347442 21.975908 -1.780191 1.097570 1.049660 1.186410 18.073705 -5.932829 3.913473 -46.676134 12.736542 -34.482453 16.174414 -31.230190 80.916798 -3.163212 -14.270095 -0.498879 0.380990 -0.712100 0.217650 -1.942023 -4.598436 -10.629813 -2.182838 10.206192 69.907159 -3.104886 13.658165 27.103558 7.312145 5.276115 -25.851353 3.305865 -0.289923 82.416825 7.605340 1.377490 -23.847240 -28.687094 -35.834634 11.867498 -32.961322 8.548898 -6.758964 21.058840 1.545356 -0.823870 -3.129879 2.999488 0.944380 -0.634770 0.940780 -0.013330 12.340866 43.912647 16.016163 26.824099 -0.539639 -13.866971 -26.671663 8.908538 -3.494428 2.934452 -1.620437 0.250840 0.080390 -0.498690 -0.206320 
-0.674920 12.560080 -0.809430 -47.315984 -68.588779 -11.984533 -16.096217 10.856021 6.156929 23.520595 -9.251430 -52.160137 48.372266 -18.307764 128.794501 3.750307 19.041468 -1.272748 1.203430 1.202850 1.187960 18.191932 -6.897374 3.053615 -39.417647 9.594848 -37.083480 1.519482 -17.071685 79.246676 -2.545283 -11.933640 0.036797 0.445230 -0.765830 0.204080 -1.921098 -4.435149 -10.248845 0.185746 8.055894 71.879785 -2.115043 12.860271 25.791001 6.316112 3.808662 -25.243676 -1.578057 1.687559 84.414711 10.934440 0.197900 -25.865570 -28.773615 -36.252847 11.168458 -32.667393 5.960549 -8.068704 24.448586 -0.810788 -1.790679 -3.003759 3.133191 0.955230 -0.714030 1.002590 0.050560 15.031474 43.869802 16.305146 30.885462 -1.789611 -11.354283 -22.405574 6.330079 -1.955907 2.897945 -1.500803 0.310470 0.069450 -0.575390 -0.159670 
-0.701100 12.414190 -0.737600 -47.509105 -72.434622 -11.609031 -16.024685 10.774166 6.581451 29.712575 -9.060456 -49.446386 44.003588 -7.927018 137.377455 3.248667 16.534286 -0.732141 1.178260 1.183610 1.124790 18.276454 -7.033962 2.677612 -33.590773 6.983155 -41.438255 -8.923446 -6.713778 71.684112 -2.021031 -9.839114 0.612287 0.427030 -0.717500 0.197460 -1.836387 -4.436500 -10.273018 1.496234 6.693863 73.319265 -1.427438 12.957089 23.756606 5.566711 2.083876 -25.025080 -6.828384 4.276903 84.531399 12.352750 -0.936430 -25.160810 -30.107725 -36.226960 10.034184 -29.981923 4.418658 -9.556872 27.821482 -3.634717 -3.088566 -3.026822 3.183708 0.922500 -0.706930 0.966520 0.065630 18.714211 44.062824 16.644476 33.905502 -2.596751 -7.926052 -15.180328 2.544839 -0.161580 2.872893 -1.264872 0.318720 0.077040 -0.554860 -0.120680 
-0.761640 12.287820 -0.662280 -39.404802 -74.696160 -19.493942 -15.775839 10.388198 6.956928 34.433670 -11.599392 -47.006928 40.540537 4.943116 145.658569 2.968459 15.266307 -0.440031 1.116890 1.075930 1.100600 18.607122 -6.871722 2.365825 -30.227901 2.984449 -44.611360 -16.950369 -0.872620 61.184999 -1.650766 -8.301749 1.043828 0.381240 -0.679560 0.235740 -1.137060 -5.150080 -10.506719 -1.134721 8.155168 74.068942 1.545785 12.982340 21.244967 4.274435 1.800604 -23.725942 -6.041706 3.352767 85.210984 11.198180 -0.577850 -22.965130 -31.281551 -36.001414 9.266015 -27.468906 5.046836 -13.555876 33.023309 -13.903529 -6.995491 -3.016409 3.232366 0.911660 -0.651690 0.913700 0.030370 23.021642 43.301217 16.819745 37.404468 -4.633178 -6.573210 -5.513619 3.383481 0.193938 2.666708 -1.089759 0.295940 0.035510 -0.498340 -0.146380 
-0.759750 12.122880 -0.605520 -25.130171 -78.087201 -32.602574 -15.483236 9.287653 7.397196 40.562430 -13.236160 -44.828039 38.085625 22.281068 154.275072 3.114803 15.577418 -0.466386 1.081130 1.014590 1.115300 19.051692 -6.575192 2.470542 -25.813187 1.037794 -50.158322 -21.531746 1.365164 50.873006 -1.393992 -6.985213 1.419239 0.366030 -0.678910 0.261230 -0.614011 -5.544427 -10.933519 -3.792342 10.151051 74.254607 3.822478 13.933199 20.586073 2.754415 2.303090 -22.722610 -3.450906 1.128850 83.613290 9.415900 0.643760 -23.137680 -29.535169 -36.698153 8.803623 -23.052082 1.731576 -15.157899 35.797910 -19.295506 -9.497342 -3.060641 3.212321 0.914060 -0.620800 0.893350 -0.008120 24.486094 43.255074 16.675624 41.541164 -5.739761 -6.755001 -2.590500 0.533315 0.338046 2.665502 -1.054905 0.270690 0.008600 -0.464460 -0.184160 
-0.727340 11.976490 -0.526310 -8.729932 -77.137677 -48.410799 -15.487351 8.343799 7.510535 42.997424 -17.691572 -44.726075 37.128354 36.097804 161.542554 3.918205 17.799660 -0.764818 1.107440 1.046930 1.128000 19.130670 -6.557501 2.567303 -24.205137 -2.034188 -54.115410 -20.527862 -0.027591 43.593913 -1.217318 -6.020721 1.721186 0.381600 -0.678270 0.253910 -0.421830 -6.442460 -11.282499 -7.138141 10.663465 75.979313 6.535818 12.822442 19.606206 1.240249 2.141465 -20.979028 -3.195892 0.475324 79.031450 8.887620 1.654350 -24.116330 -26.563660 -36.201797 8.053757 -19.026728 -2.331867 -15.670166 37.769446 -21.474548 -10.666831 -3.036797 3.230268 0.881160 -0.619600 0.891510 0.047250 24.597510 41.849248 15.745781 42.274066 -3.898934 -6.228691 0.156206 -2.021438 0.162470 2.731059 -1.062228 0.274530 -0.002100 -0.527950 -0.171100 
-0.727910 11.823770 -0.389550 4.107748 -77.810208 -61.130732 -15.785484 7.771928 7.427492 44.490310 -19.117664 -45.623178 33.957162 55.042139 166.995420 5.952918 25.135795 -1.646284 0.969240 0.879050 1.084890 18.966655 -6.633661 2.761876 -21.668930 -3.331757 -57.646426 -16.462255 -2.229616 40.473232 -1.014491 -5.560437 1.876467 0.294760 -0.613480 0.286340 -0.704604 -6.637428 -11.412564 -7.792289 9.259621 76.928720 6.803692 11.673821 17.448072 0.404170 4.599373 -19.060097 3.967244 -3.765715 75.865790 5.170390 3.196280 -20.855270 -25.545813 -35.844096 7.497875 -12.565541 -5.838098 -15.399060 40.255271 -22.042663 -11.111757 -3.257464 3.181049 0.804510 -0.504490 0.803290 -0.014460 24.798286 38.666762 14.431508 45.840233 -2.761594 -6.308276 -3.776181 -1.377173 0.522999 2.744769 -1.189922 0.244060 -0.049800 -0.450570 -0.199360 
